<svg width="1529" height="448" viewBox="0 0 1529 448" fill="none" xmlns="http://www.w3.org/2000/svg">
<g clip-path="url(#clip0_4_256)">
<path d="M1530.59 0V448.749H-0.262787V323.096C152.529 368.944 311.958 392.211 472.334 392.066C881.082 392.066 1253 243.292 1530.59 0Z" fill="#EAF5FF" fill-opacity="0.07"/>
<path d="M153.885 258.216C153.885 258.216 164.389 256.786 164.368 250.09" stroke="#939AFF" stroke-width="2" stroke-linecap="round" stroke-linejoin="round"/>
<path d="M174.86 258.186C174.86 258.186 164.356 256.786 164.336 250.09M151.759 268.351C151.759 268.351 164.282 266.631 164.272 258.585M176.923 268.3C176.923 268.3 164.314 266.631 164.304 258.585M151.759 279.354C151.759 279.354 164.293 277.635 164.272 269.599M176.955 279.303C176.955 279.303 164.336 277.635 164.325 269.599M153.715 289.498C153.715 289.498 164.347 288.039 164.347 281.223" stroke="#939AFF" stroke-width="2" stroke-linecap="round" stroke-linejoin="round"/>
<path d="M175.063 289.458C175.063 289.458 164.357 288.039 164.346 281.223M153.736 300.952C153.736 300.952 164.368 299.492 164.368 292.677C164.388 299.492 175.083 300.912 175.083 300.912M164.293 251.04L164.421 314.854M218.83 323.679C218.83 323.679 229.333 322.25 229.322 315.554" stroke="#939AFF" stroke-width="2" stroke-linecap="round" stroke-linejoin="round"/>
<path d="M239.836 323.649C239.836 323.649 229.332 322.25 229.322 315.554M216.746 333.813C216.746 333.813 229.28 332.095 229.258 324.049M241.909 333.813C241.909 333.813 229.301 332.144 229.279 324.099M216.768 344.807C216.768 344.807 229.301 343.089 229.28 335.053M241.931 344.807C241.931 344.807 229.322 343.138 229.301 335.103M218.735 354.961C218.735 354.961 229.365 353.503 229.365 346.686" stroke="#939AFF" stroke-width="2" stroke-linecap="round" stroke-linejoin="round"/>
<path d="M239.996 354.922C239.996 354.922 229.364 353.503 229.364 346.686M229.27 316.503L228.281 368.754M1378.64 256.007C1378.64 256.007 1368.14 254.618 1368.13 247.922M1357.63 256.047C1357.63 256.047 1368.14 254.618 1368.12 247.922M1380.77 266.132C1380.77 266.132 1368.23 264.462 1368.21 256.416M1355.6 266.181C1355.6 266.181 1368.21 264.462 1368.19 256.416M1380.79 277.135C1380.79 277.135 1368.25 275.466 1368.23 267.421M1355.64 277.185C1355.64 277.185 1368.23 275.466 1368.21 267.421M1378.91 287.289C1378.91 287.289 1368.28 285.87 1368.28 279.054M1357.56 287.329C1357.56 287.329 1368.26 285.87 1368.19 279.054M1378.93 298.743C1378.93 298.743 1368.3 297.324 1368.3 290.508M1357.59 298.833C1357.59 298.833 1368.22 297.374 1368.22 290.557M1368.18 248.871L1368.31 312.676M1313.93 321.71C1313.93 321.71 1303.43 320.311 1303.41 313.615" stroke="#939AFF" stroke-width="2" stroke-linecap="round" stroke-linejoin="round"/>
<path d="M1292.92 321.74C1292.92 321.74 1303.43 320.311 1303.41 313.615M1316.06 331.814C1316.06 331.814 1303.52 330.145 1303.5 322.1M1290.89 331.874C1290.89 331.874 1303.5 330.156 1303.48 322.11M1316.08 342.808C1316.08 342.808 1303.54 341.139 1303.52 333.104M1290.91 342.878C1290.91 342.878 1303.52 341.16 1303.5 333.124M1314.2 352.983C1314.2 352.983 1303.57 351.563 1303.57 344.747M1292.85 353.023C1292.85 353.023 1303.54 351.563 1303.53 344.747M1303.47 314.564L1304.67 366.815M164.729 336.682L170.725 342.299L164.751 347.936M1367.22 345.767L1361.23 340.15L1367.2 334.513" stroke="#939AFF" stroke-width="2" stroke-linecap="round" stroke-linejoin="round"/>
<path d="M-0.560623 315.943L186.544 315.794C194.372 315.782 200.729 321.737 200.747 329.096C200.749 330.846 200.386 332.579 199.676 334.196C198.966 335.814 197.925 337.284 196.611 338.522C193.957 341.025 190.355 342.433 186.597 342.438H185.278M187.905 369.073L239.773 368.983C241.633 368.979 243.476 369.32 245.196 369.986C246.916 370.652 248.48 371.63 249.799 372.865C251.117 374.099 252.163 375.566 252.878 377.18C253.593 378.795 253.962 380.527 253.965 382.277C253.981 385.444 252.788 388.511 250.605 390.922M196.941 369.053L162.698 369.113C160.835 369.118 158.99 368.778 157.267 368.112C155.544 367.445 153.978 366.465 152.658 365.229C151.339 363.992 150.292 362.523 149.578 360.905C148.863 359.287 148.495 357.553 148.495 355.801C148.491 354.052 148.854 352.319 149.562 350.701C150.271 349.084 151.311 347.614 152.624 346.375C153.938 345.136 155.498 344.152 157.215 343.48C158.933 342.808 160.774 342.461 162.635 342.459H167.62M1532.36 313.565L1343.47 313.705C1339.72 313.713 1336.12 315.124 1333.46 317.628C1332.15 318.868 1331.11 320.338 1330.4 321.956C1329.69 323.574 1329.33 325.307 1329.34 327.057C1329.34 328.806 1329.71 330.538 1330.42 332.153C1331.14 333.768 1332.18 335.234 1333.5 336.468C1334.82 337.703 1336.38 338.681 1338.1 339.347C1339.82 340.013 1341.67 340.354 1343.53 340.35H1344.86M1342.42 366.995L1290.55 367.085C1288.69 367.088 1286.85 367.435 1285.13 368.108C1283.41 368.78 1281.85 369.765 1280.54 371.005C1279.23 372.245 1278.19 373.716 1277.48 375.335C1276.77 376.953 1276.41 378.687 1276.41 380.437C1276.42 383.935 1277.89 387.29 1280.51 389.772M1333.32 367.005L1367.57 366.945C1371.33 366.937 1374.93 365.526 1377.59 363.022C1378.9 361.782 1379.94 360.311 1380.65 358.694C1381.36 357.076 1381.72 355.342 1381.71 353.593C1381.71 351.843 1381.34 350.111 1380.62 348.496C1379.91 346.881 1378.86 345.415 1377.54 344.181C1374.88 341.688 1371.27 340.292 1367.51 340.3H1362.53M839.708 389.543L765.844 294.995M765.844 294.995L692.044 389.802M765.844 294.995L766.046 390.522M765.939 340.75L727.604 389.012M721.597 351.514L700.176 324.469M700.176 324.469L648.202 389.862M700.176 324.469L700.293 378.978M699.719 354.542L670.526 390.702M882.549 388.563L831.638 324.229M831.638 324.229L810.333 351.484M831.638 324.229L831.744 378.738M831.181 354.302L821.869 366.395M750.088 359.059L716.41 359.119M815.001 358.949L766.524 359.029M865.965 368.894L833.095 368.953M686.845 369.993L664.903 369.724" stroke="#939AFF" stroke-width="2" stroke-linecap="round" stroke-linejoin="round"/>
<g opacity="0.25">
<path d="M967.331 351.804C967.331 351.804 958.486 350.634 958.465 344.977" stroke="#939AFF" stroke-width="2" stroke-linecap="round" stroke-linejoin="round"/>
<path d="M949.631 351.804C949.631 351.804 958.476 350.604 958.465 344.947M969.128 360.329C969.128 360.329 958.56 358.919 958.497 352.143" stroke="#939AFF" stroke-width="2" stroke-linecap="round" stroke-linejoin="round"/>
<path d="M947.919 360.369C947.919 360.369 958.551 358.919 958.551 352.143M969.138 369.604C969.138 369.604 958.582 368.195 958.571 361.418" stroke="#939AFF" stroke-width="2" stroke-linecap="round" stroke-linejoin="round"/>
<path d="M947.94 369.644C947.94 369.644 958.571 368.195 958.571 361.418M967.554 378.158C967.554 378.158 958.603 376.97 958.582 371.223M949.577 378.188C949.577 378.188 958.582 376.97 958.571 371.193M958.518 345.787L958.603 389.702M1066.15 355.172C1066.15 355.172 1058.59 354.173 1058.58 349.345C1058.59 354.202 1051.03 355.202 1051.03 355.202M1067.68 362.448C1067.68 362.448 1058.65 361.248 1058.64 355.451M1049.57 362.478C1049.57 362.478 1058.64 361.248 1058.63 355.481M1067.69 370.363C1067.69 370.363 1058.67 369.164 1058.66 363.367M1049.59 370.403C1049.59 370.403 1058.65 369.164 1058.64 363.407M1066.34 377.669C1066.34 377.669 1058.68 376.67 1058.67 371.743M1050.99 377.699C1050.99 377.699 1058.67 376.65 1058.66 371.702M1058.62 350.035L1058.69 387.524M1035.74 333.074C1035.74 333.074 1025.21 331.685 1025.18 324.959" stroke="#939AFF" stroke-width="2" stroke-linecap="round" stroke-linejoin="round"/>
<path d="M1014.67 333.114C1014.67 333.114 1025.21 331.685 1025.18 324.959M1037.87 343.218C1037.87 343.218 1025.3 341.549 1025.28 333.484M1012.64 343.268C1012.64 343.268 1025.28 341.549 1025.26 333.484M1037.89 354.252C1037.89 354.252 1025.32 352.583 1025.3 344.517M1012.66 354.302C1012.66 354.302 1025.3 352.583 1025.28 344.518M1036 364.437C1036 364.437 1025.36 363.017 1025.36 356.171M1014.61 364.476C1014.61 364.476 1025.32 363.017 1025.31 356.171M1036.03 375.92C1036.03 375.92 1025.4 374.501 1025.4 367.654M1014.63 375.95C1014.63 375.95 1025.34 374.501 1025.33 367.654M1025.25 325.918L1025.38 389.892M1001.31 287.749C1001.31 287.749 990.773 286.36 990.763 279.634M980.247 287.839C980.247 287.839 990.772 286.41 990.762 279.684M1003.43 297.894C1003.43 297.894 990.868 296.225 990.857 288.159M978.218 297.944C978.218 297.944 990.847 296.225 990.836 288.159M1003.45 308.927C1003.45 308.927 990.889 307.258 990.879 299.193M978.238 308.977C978.238 308.977 990.868 307.258 990.857 299.193M1001.57 319.112C1001.57 319.112 990.942 317.693 990.942 310.846M980.173 319.152C980.173 319.152 990.889 317.693 990.879 310.846M1001.59 330.596C1001.59 330.596 990.963 329.166 990.963 322.33M980.205 330.626C980.205 330.626 990.921 329.166 990.9 322.33M1001.62 341.889C1001.62 341.889 990.985 340.47 990.985 333.624M980.227 341.929C980.227 341.929 990.943 340.47 990.922 333.624M1001.65 354.572C1001.65 354.572 991.017 353.153 991.017 346.316M980.247 354.612C980.247 354.612 990.964 353.153 990.953 346.317M1001.67 367.254C1001.67 367.254 991.038 365.835 991.038 358.999M980.279 367.295C980.279 367.295 990.996 365.835 990.974 358.999M990.815 280.593L991.038 389.953M479.553 356.231C479.553 356.231 471.994 355.232 471.984 350.404C471.994 355.251 464.436 356.251 464.436 356.251M481.073 363.507C481.073 363.507 472.058 362.308 472.048 356.511M462.98 363.537C462.98 363.537 472.048 362.308 472.037 356.541M481.094 371.423C481.094 371.423 472.08 370.223 472.068 364.426M462.99 371.462C462.99 371.462 472.058 370.223 472.048 364.467M479.744 378.729C479.744 378.729 472.09 377.729 472.08 372.802M464.383 378.789C464.383 378.789 472.08 377.74 472.068 372.791M472.016 351.084L472.101 390.892M559.689 352.533C559.689 352.533 568.534 351.334 568.523 345.687C568.534 351.334 577.389 352.503 577.389 352.503M557.934 361.069C557.934 361.069 568.491 359.629 568.481 352.853M579.122 361.039C579.122 361.039 568.491 359.629 568.491 352.853M557.956 370.343C557.956 370.343 568.512 368.904 568.502 362.128" stroke="#939AFF" stroke-width="2" stroke-linecap="round" stroke-linejoin="round"/>
<path d="M579.122 370.313C579.122 370.313 568.491 368.904 568.491 362.128M559.572 378.899C559.572 378.899 568.534 377.669 568.512 371.902M577.559 378.869C577.559 378.869 568.544 377.669 568.534 371.922M568.481 346.487L568.576 390.402M491.215 334.063C491.215 334.063 501.74 332.624 501.729 325.908" stroke="#939AFF" stroke-width="2" stroke-linecap="round" stroke-linejoin="round"/>
<path d="M512.275 334.024C512.275 334.024 501.739 332.624 501.73 325.908M489.121 344.218C489.121 344.218 501.687 342.489 501.665 334.434M514.348 344.168C514.348 344.168 501.708 342.489 501.686 334.434M489.153 355.242C489.153 355.242 501.708 353.522 501.687 345.467M514.369 355.202C514.369 355.202 501.729 353.522 501.707 345.467M491.077 365.416C491.077 365.416 501.708 363.957 501.708 357.12M512.466 365.376C512.466 365.376 501.75 363.957 501.739 357.12M491.098 376.899C491.098 376.899 501.729 375.441 501.729 368.604M512.498 376.859C512.498 376.859 501.772 375.441 501.761 368.604M501.676 326.857L501.803 390.832M525.458 288.609C525.458 288.609 535.981 287.18 535.971 280.464C535.981 287.181 546.517 288.569 546.517 288.569M523.374 298.763C523.374 298.763 535.929 297.044 535.908 288.979M548.59 298.723C548.59 298.723 535.95 297.044 535.928 288.979M523.395 309.827C523.395 309.827 535.95 308.108 535.939 300.043M548.612 309.747C548.612 309.747 535.971 308.078 535.95 300.012M525.319 319.972C525.319 319.972 535.95 318.512 535.95 311.666M546.719 319.931C546.719 319.931 535.993 318.512 535.981 311.666M525.341 331.455C525.341 331.455 535.972 329.995 535.972 323.15M546.74 331.414C546.74 331.414 536.013 329.995 536.003 323.15M525.361 342.749C525.361 342.749 535.993 341.289 535.993 334.453M546.762 342.709C546.762 342.709 536.035 341.289 536.024 334.453M525.393 355.432C525.393 355.432 536.024 353.972 536.024 347.136M546.783 355.391C546.783 355.391 536.067 353.972 536.046 347.136M525.415 368.114C525.415 368.114 536.046 366.655 536.046 359.819M546.815 368.075C546.815 368.075 536.088 366.655 536.078 359.819M535.918 281.413L536.141 390.771" stroke="#939AFF" stroke-width="2" stroke-linecap="round" stroke-linejoin="round"/>
</g>
<g opacity="0.25">
<path d="M1533.43 414.028L-2.33578 416.327M1225.85 389.782C1223.5 389.719 1221.17 390.25 1219.11 391.32C1217.05 392.39 1215.33 393.96 1214.13 395.867C1212.94 397.773 1212.31 399.946 1212.31 402.16C1212.31 404.374 1212.94 406.547 1214.13 408.453C1215.33 410.36 1217.05 411.93 1219.11 413C1221.17 414.07 1223.5 414.601 1225.85 414.538M1180.67 414.428C1171.28 414.445 1163.68 421.617 1163.69 430.449C1163.71 439.281 1171.34 446.427 1180.74 446.41M304.642 391.261C306.995 391.194 309.324 391.721 311.387 392.787C313.45 393.853 315.171 395.42 316.372 397.324C317.573 399.228 318.209 401.4 318.214 403.614C318.219 405.827 317.592 408.002 316.4 409.91C315.207 411.819 313.492 413.392 311.434 414.466C309.375 415.54 307.048 416.076 304.695 416.017M350.557 415.767C353.47 415.762 356.332 416.477 358.858 417.842C361.383 419.207 363.482 421.172 364.944 423.542C366.406 425.911 367.178 428.6 367.184 431.339C367.189 434.077 366.428 436.769 364.976 439.143C363.524 441.518 361.433 443.491 358.913 444.865C356.393 446.239 353.533 446.965 350.621 446.97" stroke="#939AFF" stroke-width="2" stroke-linecap="round" stroke-linejoin="round"/>
</g>
<path opacity="0.25" fill-rule="evenodd" clip-rule="evenodd" d="M1128.5 159.521C1127.68 159.557 1126.87 159.37 1126.16 158.984C1125.45 158.598 1124.88 158.028 1124.51 157.342C1124.15 156.683 1123.94 155.962 1123.89 155.223C1123.89 154.878 1123.75 154.548 1123.49 154.304C1123.23 154.06 1122.88 153.923 1122.51 153.923C1122.14 153.923 1121.79 154.06 1121.53 154.304C1121.27 154.548 1121.13 154.878 1121.13 155.223C1121.13 155.791 1121.02 156.355 1120.79 156.881C1120.56 157.407 1120.22 157.885 1119.79 158.287C1119.37 158.689 1118.86 159.007 1118.3 159.222C1117.74 159.437 1117.14 159.546 1116.54 159.541C1116.35 159.535 1116.17 159.564 1115.99 159.627C1115.82 159.69 1115.66 159.784 1115.53 159.906C1115.4 160.027 1115.29 160.172 1115.22 160.333C1115.15 160.493 1115.11 160.666 1115.11 160.84C1115.11 161.015 1115.15 161.187 1115.22 161.348C1115.29 161.508 1115.4 161.654 1115.53 161.775C1115.66 161.896 1115.82 161.991 1115.99 162.053C1116.17 162.116 1116.35 162.145 1116.54 162.139C1117.34 162.114 1118.13 162.299 1118.83 162.673C1119.53 163.047 1120.1 163.596 1120.49 164.258C1120.87 164.936 1121.09 165.682 1121.14 166.447C1121.16 167.154 1121.77 167.721 1122.52 167.727C1122.88 167.724 1123.23 167.587 1123.49 167.346C1123.74 167.105 1123.89 166.778 1123.89 166.437C1123.89 165.869 1124.01 165.306 1124.24 164.781C1124.47 164.255 1124.8 163.778 1125.23 163.377C1125.66 162.975 1126.17 162.657 1126.72 162.441C1127.28 162.225 1127.88 162.116 1128.48 162.119C1128.84 162.104 1129.18 161.96 1129.42 161.718C1129.67 161.476 1129.8 161.155 1129.8 160.82C1129.8 160.488 1129.67 160.169 1129.42 159.928C1129.18 159.686 1128.85 159.541 1128.5 159.521Z" stroke="#939AFF" stroke-width="2" stroke-linecap="round" stroke-linejoin="round"/>
<path fill-rule="evenodd" clip-rule="evenodd" d="M816.755 232.23C815.913 232.263 815.078 232.069 814.349 231.671C813.62 231.272 813.027 230.686 812.64 229.981C812.271 229.301 812.055 228.556 812.003 227.793C812.003 227.438 811.853 227.097 811.586 226.845C811.319 226.594 810.956 226.453 810.579 226.453C810.201 226.453 809.838 226.594 809.571 226.845C809.304 227.097 809.154 227.438 809.154 227.793C809.157 228.379 809.036 228.961 808.799 229.503C808.562 230.045 808.213 230.538 807.772 230.952C807.331 231.367 806.807 231.695 806.23 231.918C805.654 232.141 805.036 232.254 804.412 232.251C804.055 232.28 803.723 232.435 803.481 232.683C803.239 232.932 803.105 233.257 803.105 233.595C803.105 233.932 803.239 234.257 803.481 234.506C803.723 234.754 804.055 234.909 804.412 234.939C805.24 234.907 806.06 235.094 806.781 235.477C807.502 235.86 808.096 236.425 808.495 237.107C808.885 237.811 809.113 238.584 809.164 239.376C809.187 240.103 809.815 240.685 810.589 240.695C810.964 240.693 811.323 240.552 811.589 240.304C811.856 240.055 812.008 239.719 812.014 239.366C812.009 238.78 812.129 238.199 812.365 237.657C812.601 237.115 812.949 236.622 813.389 236.208C813.829 235.793 814.352 235.465 814.928 235.242C815.504 235.019 816.121 234.905 816.744 234.909C816.934 234.913 817.123 234.881 817.299 234.816C817.476 234.751 817.637 234.653 817.773 234.528C817.908 234.403 818.016 234.254 818.09 234.089C818.164 233.925 818.202 233.748 818.202 233.569C818.202 233.391 818.164 233.214 818.09 233.05C818.016 232.885 817.908 232.736 817.773 232.611C817.637 232.486 817.476 232.388 817.299 232.323C817.123 232.258 816.934 232.226 816.744 232.23H816.755ZM1017.21 212.961C1016.62 212.978 1016.03 212.838 1015.51 212.558C1015 212.277 1014.58 211.866 1014.3 211.372C1014.04 210.889 1013.89 210.362 1013.85 209.823C1013.78 209.623 1013.65 209.449 1013.47 209.325C1013.28 209.202 1013.07 209.136 1012.84 209.136C1012.62 209.136 1012.4 209.202 1012.22 209.325C1012.04 209.449 1011.9 209.623 1011.83 209.823C1011.84 210.237 1011.75 210.647 1011.59 211.031C1011.42 211.414 1011.18 211.762 1010.87 212.055C1010.55 212.349 1010.18 212.58 1009.78 212.738C1009.37 212.895 1008.93 212.974 1008.49 212.971C1008.28 213.036 1008.1 213.164 1007.97 213.334C1007.83 213.505 1007.76 213.71 1007.76 213.92C1007.76 214.131 1007.83 214.336 1007.97 214.507C1008.1 214.677 1008.28 214.804 1008.49 214.87C1009.08 214.846 1009.66 214.976 1010.17 215.247C1010.68 215.517 1011.1 215.916 1011.38 216.399C1011.65 216.893 1011.82 217.439 1011.85 217.998C1011.89 218.523 1012.36 218.929 1012.92 218.927C1013.19 218.928 1013.45 218.833 1013.64 218.66C1013.84 218.488 1013.96 218.251 1013.98 217.998C1013.97 217.584 1014.06 217.174 1014.22 216.79C1014.39 216.407 1014.64 216.058 1014.95 215.765C1015.26 215.472 1015.63 215.24 1016.03 215.083C1016.44 214.926 1016.88 214.847 1017.32 214.85C1017.57 214.824 1017.79 214.714 1017.96 214.54C1018.13 214.365 1018.22 214.139 1018.22 213.905C1018.22 213.671 1018.13 213.446 1017.96 213.271C1017.79 213.097 1017.57 212.987 1017.32 212.961H1017.21Z" stroke="#939AFF" stroke-width="2" stroke-linecap="round" stroke-linejoin="round"/>
<path d="M286.831 182.297C287.232 180.809 286.275 179.297 284.693 178.92C283.111 178.542 281.503 179.442 281.102 180.929C280.701 182.417 281.658 183.929 283.24 184.306C284.822 184.684 286.43 183.784 286.831 182.297Z" stroke="#939AFF" stroke-width="2" stroke-linecap="round" stroke-linejoin="round"/>
<path d="M1210.91 271.064C1211.31 269.576 1210.35 268.064 1208.77 267.687C1207.19 267.309 1205.58 268.209 1205.18 269.696C1204.78 271.184 1205.73 272.696 1207.32 273.073C1208.9 273.451 1210.51 272.551 1210.91 271.064Z" stroke="#939AFF" stroke-width="2" stroke-linecap="round" stroke-linejoin="round"/>
<path d="M1254.01 149.959C1254.41 148.472 1253.46 146.96 1251.88 146.582C1250.29 146.204 1248.69 147.104 1248.28 148.592C1247.88 150.079 1248.84 151.591 1250.42 151.969C1252 152.346 1253.61 151.447 1254.01 149.959Z" stroke="#939AFF" stroke-width="2" stroke-linecap="round" stroke-linejoin="round"/>
<path opacity="0.25" fill-rule="evenodd" clip-rule="evenodd" d="M625.101 289.838C625.944 289.871 626.78 289.676 627.511 289.278C628.241 288.88 628.836 288.294 629.226 287.589C629.595 286.912 629.808 286.17 629.852 285.41C629.883 285.073 630.047 284.76 630.312 284.531C630.576 284.302 630.923 284.175 631.282 284.175C631.642 284.175 631.988 284.302 632.253 284.531C632.518 284.76 632.682 285.073 632.712 285.41C632.708 285.997 632.827 286.578 633.063 287.121C633.299 287.664 633.647 288.157 634.087 288.572C634.527 288.988 635.05 289.317 635.626 289.541C636.202 289.765 636.819 289.88 637.442 289.878C637.82 289.878 638.182 290.019 638.449 290.27C638.716 290.521 638.866 290.862 638.866 291.217C638.866 291.572 638.716 291.913 638.449 292.164C638.182 292.416 637.82 292.557 637.442 292.557C636.614 292.527 635.793 292.715 635.072 293.1C634.351 293.484 633.759 294.051 633.361 294.735C632.968 295.438 632.74 296.211 632.691 297.004C632.68 297.355 632.524 297.688 632.256 297.933C631.988 298.177 631.629 298.314 631.256 298.313C630.882 298.311 630.524 298.17 630.259 297.921C629.995 297.673 629.845 297.336 629.842 296.984C629.845 296.399 629.725 295.819 629.488 295.278C629.252 294.737 628.903 294.246 628.463 293.832C628.023 293.418 627.501 293.091 626.925 292.869C626.35 292.646 625.734 292.533 625.112 292.537C624.754 292.508 624.42 292.354 624.177 292.105C623.934 291.856 623.799 291.53 623.799 291.192C623.799 290.854 623.934 290.528 624.177 290.279C624.42 290.031 624.754 289.876 625.112 289.848L625.101 289.838ZM495.648 209.063C496.356 209.09 497.058 208.926 497.672 208.592C498.285 208.257 498.785 207.766 499.113 207.175C499.424 206.599 499.606 205.97 499.645 205.326C499.672 205.042 499.811 204.778 500.034 204.586C500.257 204.394 500.549 204.287 500.852 204.287C501.154 204.287 501.446 204.394 501.669 204.586C501.893 204.778 502.031 205.042 502.058 205.326C502.052 205.82 502.152 206.31 502.35 206.768C502.548 207.226 502.841 207.642 503.212 207.992C503.584 208.342 504.025 208.619 504.512 208.806C504.998 208.994 505.519 209.088 506.045 209.083C506.205 209.08 506.365 209.106 506.514 209.161C506.663 209.216 506.799 209.298 506.914 209.404C507.029 209.509 507.12 209.635 507.182 209.774C507.245 209.913 507.277 210.062 507.277 210.213C507.277 210.364 507.245 210.513 507.182 210.652C507.12 210.791 507.029 210.917 506.914 211.022C506.799 211.127 506.663 211.21 506.514 211.265C506.365 211.32 506.205 211.346 506.045 211.342C505.348 211.317 504.658 211.475 504.052 211.798C503.445 212.121 502.946 212.596 502.611 213.171C502.279 213.761 502.087 214.413 502.048 215.08C502.039 215.377 501.908 215.659 501.682 215.866C501.455 216.073 501.152 216.189 500.836 216.188C500.52 216.188 500.218 216.071 499.995 215.861C499.771 215.651 499.646 215.367 499.645 215.07C499.646 214.577 499.542 214.088 499.341 213.632C499.14 213.177 498.846 212.763 498.474 212.415C498.103 212.066 497.662 211.791 497.177 211.603C496.692 211.416 496.172 211.32 495.648 211.322C495.487 211.326 495.328 211.299 495.179 211.244C495.029 211.189 494.893 211.107 494.779 211.002C494.664 210.896 494.573 210.771 494.51 210.632C494.448 210.493 494.416 210.343 494.416 210.193C494.416 210.042 494.448 209.892 494.51 209.753C494.573 209.615 494.664 209.489 494.779 209.383C494.893 209.278 495.029 209.196 495.179 209.141C495.328 209.086 495.487 209.059 495.648 209.063Z" stroke="#939AFF" stroke-width="2" stroke-linecap="round" stroke-linejoin="round"/>
<path d="M1533.37 389.412L-2.38905 391.701M1394.51 131.676C1397.48 126.257 1399.16 120.296 1399.44 114.207C1399.71 108.117 1398.58 102.043 1396.12 96.4054M1310.53 106.381C1310.23 108.367 1310.08 110.371 1310.08 112.377C1310.08 130.68 1322.67 146.883 1341.22 152.441C1359.77 157.998 1380.01 151.634 1391.27 136.704M1393.19 90.8691C1384.1 76.5466 1366.86 68.6309 1349.26 70.6919C1331.65 72.7528 1317 84.4015 1311.92 100.384M65.8935 222.576C66.4937 222.599 67.0886 222.462 67.6096 222.18C68.1306 221.899 68.5565 221.485 68.8385 220.986C69.098 220.507 69.2498 219.984 69.2844 219.447C69.3097 219.213 69.4265 218.996 69.6121 218.839C69.7977 218.681 70.0389 218.593 70.289 218.593C70.5391 218.593 70.7804 218.681 70.966 218.839C71.1516 218.996 71.2683 219.213 71.2936 219.447C71.2921 219.861 71.3778 220.271 71.5456 220.654C71.7134 221.037 71.96 221.385 72.2713 221.677C72.5826 221.97 72.9523 222.202 73.3593 222.359C73.7662 222.517 74.2022 222.597 74.6423 222.595C74.8904 222.62 75.12 222.73 75.2869 222.905C75.4538 223.079 75.5461 223.305 75.5461 223.54C75.5461 223.775 75.4538 224.001 75.2869 224.175C75.12 224.35 74.8904 224.46 74.6423 224.485C74.0584 224.468 73.481 224.603 72.9731 224.875C72.4651 225.146 72.0462 225.543 71.7619 226.023C71.4886 226.52 71.329 227.065 71.2936 227.623C71.2546 228.147 70.7903 228.553 70.2305 228.552C69.9705 228.538 69.7251 228.434 69.5409 228.261C69.3567 228.088 69.2464 227.857 69.2311 227.612C69.2354 227.199 69.1521 226.789 68.9859 226.406C68.8197 226.024 68.574 225.676 68.2632 225.384C67.9523 225.091 67.5827 224.86 67.1758 224.704C66.7689 224.548 66.333 224.47 65.8935 224.474C65.6812 224.408 65.4963 224.281 65.3653 224.111C65.2342 223.94 65.1636 223.735 65.1636 223.525C65.1636 223.315 65.2342 223.11 65.3653 222.939C65.4963 222.769 65.6812 222.642 65.8935 222.576ZM1317.09 52.9704L1318.91 57.6077C1319.04 57.9388 1319.32 58.2003 1319.67 58.3269L1324.6 60.0365C1324.85 60.1246 1325.06 60.2807 1325.21 60.4842C1325.36 60.6877 1325.44 60.9289 1325.44 61.176C1325.44 61.423 1325.36 61.6643 1325.21 61.8678C1325.06 62.0712 1324.85 62.2274 1324.6 62.3155L1319.67 64.0235C1319.32 64.1531 1319.04 64.4139 1318.91 64.7435L1317.09 69.3808C1316.99 69.6118 1316.83 69.8106 1316.61 69.9509C1316.4 70.0911 1316.14 70.1662 1315.88 70.1662C1315.61 70.1662 1315.36 70.0911 1315.14 69.9509C1314.92 69.8106 1314.76 69.6118 1314.66 69.3808L1312.85 64.7435C1312.78 64.5804 1312.68 64.4324 1312.54 64.3086C1312.41 64.1848 1312.25 64.088 1312.08 64.0243L1307.15 62.3155C1306.9 62.2274 1306.69 62.0712 1306.54 61.8678C1306.39 61.6643 1306.31 61.423 1306.31 61.176C1306.31 60.9289 1306.39 60.6877 1306.54 60.4842C1306.69 60.2807 1306.9 60.1246 1307.15 60.0365L1312.08 58.3277C1312.43 58.2003 1312.71 57.9388 1312.85 57.6085L1314.66 52.9704C1314.76 52.7394 1314.92 52.5406 1315.14 52.4003C1315.36 52.2601 1315.61 52.185 1315.88 52.185C1316.14 52.185 1316.4 52.2601 1316.61 52.4003C1316.83 52.5406 1316.99 52.7394 1317.09 52.9704Z" stroke="#939AFF" stroke-width="2" stroke-linecap="round" stroke-linejoin="round"/>
<path d="M1394.58 171.734C1397.59 171.734 1400.03 169.438 1400.03 166.607C1400.03 163.775 1397.59 161.479 1394.58 161.479C1391.57 161.479 1389.12 163.775 1389.12 166.607C1389.12 169.438 1391.57 171.734 1394.58 171.734Z" stroke="#939AFF" stroke-width="2" stroke-linecap="round" stroke-linejoin="round"/>
<path d="M1357.49 93.6178C1358.95 93.6178 1360.14 92.4992 1360.14 91.1193C1360.14 89.7394 1358.95 88.6208 1357.49 88.6208C1356.02 88.6208 1354.83 89.7394 1354.83 91.1193C1354.83 92.4992 1356.02 93.6178 1357.49 93.6178Z" fill="#939AFF"/>
<path d="M1321.73 106.161H1305.99M1299.94 106.161H1296.2M1398.11 91.5291H1385.82M1415.12 91.5291H1409.8" stroke="#939AFF" stroke-width="2" stroke-linecap="round" stroke-linejoin="round"/>
<path d="M1404.04 92.5285C1404.63 92.5285 1405.1 92.0811 1405.1 91.5291C1405.1 90.9772 1404.63 90.5297 1404.04 90.5297C1403.45 90.5297 1402.98 90.9772 1402.98 91.5291C1402.98 92.0811 1403.45 92.5285 1404.04 92.5285Z" fill="#939AFF"/>
<path d="M1402.78 136.414H1386.18" stroke="#939AFF" stroke-width="2" stroke-linecap="round" stroke-linejoin="round"/>
<path d="M1380.86 137.413C1381.45 137.413 1381.93 136.966 1381.93 136.414C1381.93 135.862 1381.45 135.414 1380.86 135.414C1380.28 135.414 1379.8 135.862 1379.8 136.414C1379.8 136.966 1380.28 137.413 1380.86 137.413Z" fill="#939AFF"/>
<path d="M1339.29 124.86V116.894M1335.04 120.882H1343.54" stroke="#939AFF" stroke-width="2" stroke-linecap="round" stroke-linejoin="round"/>
</g>
<defs>
<clipPath id="clip0_4_256">
<rect width="1529" height="448" fill="white"/>
</clipPath>
</defs>
</svg>
