<svg width="82" height="452" viewBox="0 0 82 452" fill="none" xmlns="http://www.w3.org/2000/svg">
<g clip-path="url(#clip0_0_352)">
<path d="M2.36231 0.224121L2.3622 31.4313C2.36211 57.0217 12.0022 81.673 29.3622 100.474C46.722 119.276 56.3621 143.927 56.3621 169.518V281.085C56.3621 306.954 46.7379 331.899 29.3622 351.065C11.9865 370.23 2.36227 395.175 2.36222 421.045L2.36215 451.776" stroke="url(#paint0_linear_0_352)" stroke-width="2.7931"/>
<g filter="url(#filter0_dd_0_352)">
<path d="M56.77 220.064C60.0804 220.064 62.764 222.747 62.764 226.058C62.764 229.368 60.0804 232.052 56.77 232.052C53.4595 232.052 50.7759 229.368 50.7759 226.058C50.7759 222.747 53.4595 220.064 56.77 220.064Z" fill="#FFB77C"/>
<path d="M56.77 221.46C59.3091 221.46 61.3675 223.519 61.3675 226.058C61.3675 228.597 59.3091 230.655 56.77 230.655C54.2308 230.655 52.1725 228.597 52.1725 226.058C52.1725 223.519 54.2308 221.46 56.77 221.46Z" fill="#FFB77C" stroke="white" stroke-width="2.7931"/>
</g>
</g>
<defs>
<filter id="filter0_dd_0_352" x="36.8104" y="206.098" width="39.9191" height="39.9192" filterUnits="userSpaceOnUse" color-interpolation-filters="sRGB">
<feFlood flood-opacity="0" result="BackgroundImageFix"/>
<feColorMatrix in="SourceAlpha" type="matrix" values="0 0 0 0 0 0 0 0 0 0 0 0 0 0 0 0 0 0 127 0" result="hardAlpha"/>
<feOffset/>
<feGaussianBlur stdDeviation="2.32759"/>
<feComposite in2="hardAlpha" operator="out"/>
<feColorMatrix type="matrix" values="0 0 0 0 1 0 0 0 0 0.717647 0 0 0 0 0.486275 0 0 0 1 0"/>
<feBlend mode="normal" in2="BackgroundImageFix" result="effect1_dropShadow_0_352"/>
<feColorMatrix in="SourceAlpha" type="matrix" values="0 0 0 0 0 0 0 0 0 0 0 0 0 0 0 0 0 0 127 0" result="hardAlpha"/>
<feOffset/>
<feGaussianBlur stdDeviation="6.98276"/>
<feComposite in2="hardAlpha" operator="out"/>
<feColorMatrix type="matrix" values="0 0 0 0 1 0 0 0 0 0.717647 0 0 0 0 0.486275 0 0 0 1 0"/>
<feBlend mode="normal" in2="effect1_dropShadow_0_352" result="effect2_dropShadow_0_352"/>
<feBlend mode="normal" in="SourceGraphic" in2="effect2_dropShadow_0_352" result="shape"/>
</filter>
<linearGradient id="paint0_linear_0_352" x1="22.8448" y1="0.224121" x2="21.4483" y2="451.776" gradientUnits="userSpaceOnUse">
<stop offset="0.0515742" stop-color="#30363D"/>
<stop offset="0.225992" stop-color="#FFB77C"/>
<stop offset="0.561417" stop-color="#EA6045"/>
<stop offset="0.791714" stop-color="#FFB77C"/>
<stop offset="0.956186" stop-opacity="0.03"/>
</linearGradient>
<clipPath id="clip0_0_352">
<rect width="81" height="452" fill="white" transform="translate(0.5)"/>
</clipPath>
</defs>
</svg>
