<svg width="32" height="339" viewBox="0 0 32 339" fill="none" xmlns="http://www.w3.org/2000/svg">
<g filter="url(#filter0_d_4_226)">
<path d="M16 0C11.5817 0 8 3.58172 8 8C8 12.4183 11.5817 16 16 16C20.4183 16 24 12.4183 24 8C24 3.58172 20.4183 0 16 0ZM14.9393 330.1C15.5251 330.685 16.4749 330.685 17.0607 330.1L26.6066 320.554C27.1924 319.968 27.1924 319.018 26.6066 318.432C26.0208 317.847 25.0711 317.847 24.4853 318.432L16 326.918L7.51472 318.432C6.92893 317.847 5.97919 317.847 5.3934 318.432C4.80761 319.018 4.80761 319.968 5.3934 320.554L14.9393 330.1ZM14.5 8L14.5 329.039H17.5L17.5 8L14.5 8Z" fill="url(#paint0_linear_4_226)"/>
</g>
<defs>
<filter id="filter0_d_4_226" x="0.954056" y="0" width="30.0919" height="338.539" filterUnits="userSpaceOnUse" color-interpolation-filters="sRGB">
<feFlood flood-opacity="0" result="BackgroundImageFix"/>
<feColorMatrix in="SourceAlpha" type="matrix" values="0 0 0 0 0 0 0 0 0 0 0 0 0 0 0 0 0 0 127 0" result="hardAlpha"/>
<feOffset dy="4"/>
<feGaussianBlur stdDeviation="2"/>
<feComposite in2="hardAlpha" operator="out"/>
<feColorMatrix type="matrix" values="0 0 0 0 0 0 0 0 0 0 0 0 0 0 0 0 0 0 0.25 0"/>
<feBlend mode="normal" in2="BackgroundImageFix" result="effect1_dropShadow_4_226"/>
<feBlend mode="normal" in="SourceGraphic" in2="effect1_dropShadow_4_226" result="shape"/>
</filter>
<linearGradient id="paint0_linear_4_226" x1="14.5025" y1="188.519" x2="14.5339" y2="349.039" gradientUnits="userSpaceOnUse">
<stop stop-color="#B384F9"/>
<stop offset="1" stop-color="#7EE787"/>
</linearGradient>
</defs>
</svg>
